<?xml version="1.0" standalone="no"?>
<!DOCTYPE svg PUBLIC "-//W3C//DTD SVG 20010904//EN"
 "http://www.w3.org/TR/2001/REC-SVG-20010904/DTD/svg10.dtd">
<svg version="1.0" xmlns="http://www.w3.org/2000/svg"
 width="1416.000000pt" height="1416.000000pt" viewBox="0 0 1416.000000 1416.000000"
 preserveAspectRatio="xMidYMid meet">
<metadata>
Created by potrace 1.14, written by Peter Selinger 2001-2017
</metadata>
<g transform="translate(0.000000,1416.000000) scale(0.100000,-0.100000)"
fill="#000000" stroke="none">
<path d="M7410 12699 c0 -5 5 -7 10 -4 6 3 10 8 10 11 0 2 -4 4 -10 4 -5 0
-10 -5 -10 -11z"/>
<path d="M7350 12691 c0 -7 -3 -10 -8 -7 -4 2 -23 1 -42 -3 l-35 -7 33 -6 c33
-5 74 14 59 28 -4 4 -7 2 -7 -5z"/>
<path d="M7380 12689 c0 -5 5 -7 10 -4 6 3 10 8 10 11 0 2 -4 4 -10 4 -5 0
-10 -5 -10 -11z"/>
<path d="M7180 12669 c-28 -4 -31 -7 -17 -13 14 -7 15 -11 6 -22 -8 -10 -15
-11 -24 -4 -9 8 -14 6 -19 -6 -5 -13 -9 -15 -18 -6 -15 15 -52 16 -43 2 3 -5
15 -10 26 -10 27 0 24 -17 -6 -24 -36 -9 -39 -9 -44 5 -2 7 2 9 10 5 8 -4 5 0
-5 8 -11 9 -27 16 -35 15 -12 0 -10 -3 4 -9 17 -7 15 -9 -12 -9 -17 -1 -34 -5
-38 -11 -3 -5 -13 -6 -22 -3 -15 6 -14 7 3 14 16 6 16 8 2 8 -9 1 -20 -3 -23
-9 -3 -5 -14 -10 -23 -9 -14 0 -13 2 3 9 24 10 14 13 -43 11 -26 0 -41 3 -37
9 4 6 -8 10 -29 10 -20 0 -36 -4 -36 -10 0 -5 -5 -10 -11 -10 -5 0 -7 5 -4 10
4 6 -9 10 -32 9 -30 0 -34 -2 -18 -9 19 -8 19 -9 -2 -9 -13 -1 -23 3 -23 8 0
4 -34 1 -75 -7 -41 -8 -72 -19 -69 -23 3 -5 -3 -8 -13 -7 -26 3 -133 -24 -133
-33 0 -5 -7 -6 -15 -3 -12 5 -14 2 -8 -12 6 -17 5 -18 -12 -4 -17 14 -18 13
-12 -2 5 -13 1 -18 -13 -18 -11 0 -20 -5 -20 -11 0 -5 -10 -9 -22 -7 -13 2
-22 -2 -21 -8 1 -6 -3 -11 -10 -12 -49 -6 -76 -16 -70 -25 4 -6 1 -7 -8 -1 -8
5 -25 10 -39 11 -19 3 -22 1 -10 -6 15 -10 15 -10 -34 -25 -7 -3 -18 0 -24 6
-8 8 -10 4 -6 -13 2 -13 2 -18 -2 -11 -3 6 -17 12 -30 12 -14 0 -22 -4 -19
-10 3 -6 -1 -7 -10 -4 -8 4 -22 1 -30 -6 -8 -6 -19 -9 -26 -5 -8 6 -8 2 0 -14
9 -16 18 -20 39 -16 22 4 23 4 7 -3 -11 -5 -41 -9 -67 -8 -25 1 -44 -2 -41 -7
2 -4 35 -6 73 -4 38 2 74 0 82 -4 10 -7 10 -9 0 -9 -7 0 -10 -5 -7 -10 5 -8
11 -7 21 1 8 6 14 8 14 3 0 -5 5 -2 11 6 9 13 10 13 6 0 -2 -8 -8 -15 -13 -16
-5 0 -18 -5 -28 -9 -13 -6 -21 -5 -24 3 -2 7 -8 10 -13 7 -5 -4 -6 2 -2 11 4
12 3 15 -5 10 -7 -4 -12 -14 -12 -22 0 -8 -8 -14 -17 -14 -15 0 -16 2 -3 10
12 7 10 9 -8 7 -17 -1 -21 -6 -16 -21 6 -19 6 -19 -10 -3 -18 18 -41 14 -30
-5 4 -6 -1 -8 -14 -4 -15 5 -20 2 -18 -11 1 -12 -7 -17 -31 -19 -23 -1 -30 2
-26 12 3 8 14 14 25 14 12 0 17 -4 12 -12 -4 -7 -3 -8 5 -4 6 4 9 11 6 16 -3
5 11 17 31 26 21 10 32 20 26 22 -6 2 -24 -4 -40 -12 -16 -8 -33 -12 -37 -8
-5 4 -5 2 -2 -5 5 -7 -7 -13 -33 -17 -22 -3 -58 -9 -80 -12 -22 -3 -40 -9 -40
-13 0 -5 -11 -6 -25 -3 -14 2 -25 0 -25 -6 0 -6 -18 -13 -39 -17 -22 -4 -42
-13 -45 -22 -4 -10 -14 -13 -29 -9 -16 4 -31 -1 -44 -13 -25 -24 -60 -35 -68
-21 -3 5 2 10 12 11 13 0 14 2 4 6 -17 7 -121 -17 -121 -29 0 -4 -15 -8 -34
-8 -19 0 -38 -4 -41 -10 -3 -5 -1 -10 5 -10 6 0 8 -4 5 -10 -4 -6 -12 -6 -24
2 -19 11 -95 -10 -191 -53 -25 -12 -61 -28 -80 -37 -19 -9 -37 -19 -40 -22 -3
-3 -26 -18 -51 -32 -25 -15 -52 -34 -59 -43 -7 -9 -45 -37 -84 -62 -84 -53
-112 -81 -132 -129 -8 -20 -35 -54 -60 -77 -24 -22 -44 -46 -44 -54 0 -7 -5
-22 -12 -33 -10 -15 -9 -22 6 -39 17 -19 17 -21 -5 -51 -20 -26 -21 -33 -9
-40 8 -5 18 -6 22 -4 4 3 15 1 24 -4 14 -8 14 -10 -5 -15 -11 -3 -23 -1 -26 3
-6 10 -45 1 -45 -10 0 -4 7 -10 15 -14 24 -9 6 -34 -44 -63 -57 -34 -63 -40
-84 -82 -24 -47 -22 -49 14 -13 39 40 79 44 79 7 0 -14 -4 -25 -10 -25 -5 0
-24 -13 -42 -28 -18 -16 -55 -41 -83 -56 -36 -19 -60 -42 -87 -85 -21 -31 -38
-62 -38 -67 0 -5 -9 -20 -20 -34 -23 -30 -26 -52 -5 -44 8 4 15 1 15 -5 0 -6
-7 -11 -15 -11 -8 0 -15 -5 -15 -12 0 -6 -3 -8 -6 -5 -4 4 -14 -8 -24 -25 -13
-25 -15 -41 -8 -71 5 -22 6 -42 3 -45 -3 -3 -5 0 -5 6 0 7 -4 12 -10 12 -5 0
-10 -9 -10 -20 0 -12 -6 -33 -14 -48 -17 -35 -29 -112 -17 -112 5 0 11 10 13
22 3 23 38 39 38 18 0 -21 -42 -71 -55 -66 -8 3 -15 -6 -18 -22 -3 -15 -1 -28
4 -30 5 -2 9 -13 9 -25 0 -16 -3 -18 -12 -9 -14 14 -37 -12 -38 -42 0 -10 -14
-60 -32 -110 -17 -50 -35 -107 -39 -126 -5 -19 -11 -47 -15 -62 -4 -18 -2 -28
5 -28 6 0 11 7 11 15 0 8 7 15 16 15 19 0 10 -39 -15 -58 -15 -12 -15 -14 2
-26 16 -12 16 -14 1 -20 -22 -9 -24 -8 -24 9 0 8 -4 15 -9 15 -9 0 -21 -83
-20 -135 0 -26 2 -27 9 -10 6 14 8 5 5 -28 -1 -26 -9 -56 -18 -65 -8 -9 -17
-32 -19 -50 -4 -29 -2 -33 15 -28 16 4 18 1 12 -17 -3 -12 -9 -41 -12 -65 -5
-41 -4 -43 18 -41 66 6 72 -3 34 -59 -19 -28 -22 -38 -11 -40 17 -4 10 -39
-12 -64 -14 -16 -13 -18 7 -18 12 0 19 -4 16 -10 -3 -5 1 -10 11 -10 12 0 15
-5 9 -22 -4 -13 -9 -45 -10 -73 -1 -27 -5 -70 -8 -95 -4 -25 -4 -39 -1 -32 3
6 12 12 20 12 12 0 13 -4 3 -22 -8 -15 -9 -56 -5 -137 8 -129 22 -201 40 -198
7 1 10 -14 8 -45 -2 -37 0 -48 12 -48 11 0 13 -8 10 -32 -3 -18 0 -53 6 -78 6
-25 14 -57 17 -72 3 -16 9 -28 14 -28 5 0 9 -26 9 -58 0 -58 26 -209 55 -316
11 -44 13 -67 6 -88 -15 -42 -2 -127 20 -139 28 -15 26 -85 -3 -109 -17 -13
-20 -21 -11 -31 6 -8 14 -29 18 -47 7 -32 14 -42 87 -125 20 -23 39 -56 43
-73 5 -28 22 -65 62 -131 10 -17 8 -29 -16 -76 -16 -31 -27 -58 -25 -60 2 -2
4 -63 5 -135 1 -122 9 -170 22 -122 3 11 11 20 17 20 9 0 11 -13 8 -45 -3 -25
-3 -45 1 -45 13 0 -1 -264 -15 -291 -17 -35 -1 -99 34 -132 28 -26 148 -62
157 -47 3 5 -4 37 -14 72 -28 94 -46 307 -45 538 1 223 7 282 85 820 18 127
25 200 43 435 4 63 31 174 45 188 6 6 11 21 11 34 0 13 7 40 15 60 11 25 12
40 5 48 -12 14 -3 45 12 45 6 0 8 13 4 32 -4 21 -1 39 10 56 14 22 15 27 2 36
-7 6 -12 19 -10 29 3 17 -11 22 -52 18 -14 -1 -11 5 14 29 24 22 30 35 25 51
-5 15 -1 25 15 36 21 15 21 17 5 25 -11 7 -21 6 -28 -1 -6 -6 -17 -11 -24 -11
-8 0 -2 18 18 50 17 28 35 50 40 50 5 0 9 5 9 11 0 7 -11 9 -30 6 -35 -7 -35
-6 -15 34 14 26 14 30 0 35 -23 9 -19 21 20 60 25 25 30 35 18 32 -10 -1 -24
1 -30 5 -16 10 -85 -37 -169 -115 -35 -34 -67 -59 -70 -56 -7 7 53 77 106 123
76 66 151 139 161 157 8 15 5 17 -23 13 -18 -3 -27 -3 -20 1 6 3 12 10 12 16
0 5 14 30 32 56 20 29 27 47 20 50 -7 2 -12 22 -12 43 0 22 -4 38 -9 34 -24
-14 -17 15 10 41 16 15 27 34 24 42 -9 24 24 72 54 78 22 5 30 13 35 35 3 16
3 34 1 41 -3 8 8 19 27 26 18 8 43 18 56 23 13 5 22 17 22 31 0 22 24 53 105
141 19 20 35 44 35 51 0 8 17 25 37 37 20 13 48 35 63 51 15 15 32 28 38 28 6
0 20 14 32 30 12 17 29 30 38 30 9 0 37 16 61 35 24 19 48 35 52 35 5 0 17 8
27 18 19 19 149 65 162 57 8 -5 61 14 70 26 14 18 51 27 104 25 48 -1 63 2 78
18 14 16 32 20 88 20 39 0 70 4 70 7 0 4 14 9 30 11 17 3 30 1 30 -3 0 -8 48
-5 70 4 8 4 46 8 83 11 38 2 71 6 74 9 3 3 11 3 18 1 9 -4 15 4 17 23 2 20 9
28 23 29 39 2 45 4 45 15 0 5 -5 7 -12 3 -7 -4 -8 -3 -4 4 12 19 33 14 40 -10
6 -22 7 -22 21 -4 11 15 17 16 28 8 8 -7 17 -9 20 -5 11 10 57 12 57 2 0 -5
11 -14 24 -21 20 -9 28 -7 42 6 16 16 19 15 48 -13 35 -34 52 -40 42 -16 -3 9
1 18 10 22 10 4 13 13 9 32 -7 34 20 74 35 51 29 -46 28 -45 45 -30 14 12 18
12 26 -1 5 -8 9 -19 9 -26 0 -18 19 -26 35 -13 9 8 15 8 20 0 4 -6 16 -8 27
-4 18 5 20 3 15 -15 -6 -25 11 -40 24 -20 5 8 9 24 9 37 0 12 5 22 10 22 6 0
10 -18 10 -40 0 -45 14 -54 24 -15 9 37 26 30 26 -10 0 -25 4 -35 15 -35 25 0
40 -45 26 -76 -9 -20 -9 -25 1 -22 7 3 15 15 19 29 l6 24 13 -30 13 -30 13 44
c8 24 20 51 28 60 8 9 24 26 36 39 11 12 25 20 31 16 6 -3 13 4 16 16 5 18 11
21 36 16 20 -4 33 -1 41 9 6 8 21 17 34 20 17 3 22 -1 22 -16 0 -11 -5 -29
-11 -40 -11 -22 -2 -107 10 -92 4 4 13 27 19 51 33 119 35 124 45 107 5 -9 7
-30 5 -46 -3 -17 -1 -32 4 -35 4 -3 8 -16 8 -30 0 -30 22 -32 48 -3 13 13 18
29 14 42 -3 12 -2 19 3 15 4 -4 21 8 39 26 18 17 52 38 75 45 24 7 49 15 57
18 9 3 14 -2 14 -16 0 -17 6 -21 31 -21 26 0 31 -3 26 -20 -6 -24 8 -27 17 -3
6 14 9 15 16 4 4 -8 6 -21 2 -29 -3 -10 -1 -13 6 -8 6 4 26 9 43 11 28 3 31 2
26 -21 -6 -32 10 -30 48 4 16 16 43 34 58 40 26 11 28 11 25 -10 -4 -30 31
-36 66 -12 18 11 26 13 26 4 0 -16 75 -5 133 20 66 28 87 33 87 19 0 -15 -49
-63 -74 -72 -11 -4 -16 -10 -13 -14 4 -3 28 3 54 14 64 27 211 39 220 18 3 -8
23 -18 45 -21 36 -6 39 -9 36 -37 -3 -28 1 -32 43 -47 26 -8 53 -21 61 -28 8
-6 30 -13 49 -14 21 -2 37 -10 41 -20 4 -10 14 -18 22 -18 8 0 17 -8 21 -17 3
-10 28 -36 56 -58 28 -22 58 -56 68 -77 16 -36 115 -148 130 -148 5 0 19 -10
33 -22 14 -13 34 -29 44 -36 10 -7 24 -16 29 -20 32 -22 76 -87 72 -104 -6
-21 54 -96 122 -154 39 -34 53 -64 30 -64 -8 0 -8 -4 0 -14 9 -10 8 -15 -4
-20 -8 -3 -22 -3 -30 0 -17 7 -21 -11 -5 -21 6 -3 10 -16 10 -28 0 -12 9 -33
19 -46 10 -14 17 -30 14 -37 -2 -7 0 -15 6 -19 6 -3 11 -19 11 -35 0 -16 11
-42 25 -58 14 -17 21 -32 15 -34 -8 -2 -8 -12 -1 -31 6 -16 11 -42 11 -58 0
-25 -3 -29 -19 -24 -11 3 -22 1 -26 -5 -4 -7 2 -14 14 -17 38 -10 52 -48 55
-151 2 -53 7 -105 11 -115 5 -12 1 -25 -10 -37 -13 -15 -15 -23 -7 -33 12 -14
36 -243 27 -257 -6 -9 18 -184 40 -295 83 -407 107 -526 117 -560 6 -22 12
-49 13 -60 2 -11 12 -63 24 -116 11 -53 27 -157 36 -230 9 -74 17 -141 20
-149 10 -35 6 -389 -5 -440 -6 -30 -15 -93 -19 -140 -4 -48 -19 -115 -33 -154
-32 -86 -28 -100 24 -93 104 14 149 151 114 345 -13 71 -15 104 -7 152 7 42 7
69 0 81 -13 26 -1 92 17 85 8 -3 14 4 16 17 4 29 34 34 43 7 12 -38 23 -11 14
36 -5 25 -6 51 -2 57 4 6 8 43 10 81 2 39 8 75 13 80 7 7 10 1 10 -16 0 -15 3
-33 6 -42 5 -13 8 -13 19 -2 16 15 34 76 28 93 -3 7 3 23 11 35 18 25 21 59 7
73 -11 12 -2 107 9 100 11 -7 19 58 9 71 -5 6 -8 29 -6 51 1 30 6 39 16 35 11
-4 13 0 7 19 -17 56 -18 71 -5 79 8 5 14 31 15 67 4 116 14 217 23 226 5 5 14
-1 22 -14 l12 -24 8 30 c5 16 5 33 1 37 -4 4 -4 52 0 105 6 90 0 131 -16 104
-9 -14 -26 -14 -26 -1 0 6 7 10 16 10 14 0 16 8 10 55 -6 54 -1 66 21 44 9 -9
13 -5 18 17 4 16 10 41 15 55 4 14 4 46 0 70 -5 24 -6 47 -4 51 3 5 0 9 -5 9
-6 1 -17 2 -23 3 -23 2 -21 44 1 51 25 8 26 14 6 41 -15 22 -24 89 -12 100 12
12 37 -5 37 -25 0 -11 4 -22 9 -25 4 -3 8 50 8 117 0 85 4 122 12 122 6 0 11
3 11 8 0 112 0 114 -14 82 l-12 -30 -12 34 c-16 45 -15 54 3 47 20 -7 20 30 0
64 -16 28 -21 100 -6 85 5 -6 11 -21 14 -35 3 -14 4 -5 4 20 0 29 -8 55 -21
73 l-21 29 23 18 c30 24 42 119 18 139 -9 8 -16 19 -16 26 0 7 -7 15 -15 19
-24 9 -19 39 5 31 15 -5 20 -2 20 12 0 24 -16 48 -32 49 -7 1 -19 2 -25 3 -7
0 -13 9 -13 19 0 19 -39 62 -56 62 -5 0 -17 9 -26 20 -24 28 -3 36 28 11 15
-12 32 -21 38 -21 6 0 20 -16 31 -36 11 -20 21 -31 23 -25 2 6 -5 23 -15 38
-10 16 -25 40 -33 56 -7 15 -17 27 -22 27 -4 0 -8 5 -8 11 0 14 -100 119 -113
119 -6 0 2 -11 17 -25 14 -13 26 -27 26 -30 -1 -28 2 -34 15 -29 19 8 20 -16
2 -40 -13 -17 -16 -16 -45 22 -18 22 -32 45 -32 51 0 6 -13 20 -30 33 -33 24
-38 38 -15 38 8 0 15 7 15 15 0 8 -4 15 -8 15 -5 0 -17 8 -28 18 -10 9 -26 17
-34 17 -8 0 -14 6 -12 14 2 7 -3 21 -10 30 -21 27 -38 60 -38 76 0 18 -12 19
-27 4 -17 -17 -43 -3 -43 22 0 19 4 21 30 16 25 -6 30 -3 30 13 0 11 -4 20 -9
20 -18 0 -21 33 -5 52 10 10 14 21 11 25 -4 3 1 15 10 26 17 18 17 19 -2 33
-19 14 -19 14 0 28 11 8 23 12 27 10 4 -3 5 1 2 9 -3 8 5 27 18 43 13 16 42
67 65 114 36 73 46 94 58 130 1 3 7 18 13 33 15 35 15 57 1 57 -20 0 -38 -28
-41 -66 -2 -32 -7 -40 -25 -42 -27 -4 -28 -2 -7 46 9 20 16 48 15 62 -1 14 4
59 12 100 8 41 12 97 11 124 -2 27 1 55 7 62 13 16 4 78 -15 96 -7 7 -17 27
-23 44 -6 17 -24 51 -39 74 -16 24 -32 48 -35 54 -22 41 -35 65 -48 91 -19 39
-82 125 -110 149 -11 11 -21 25 -21 33 0 18 -10 16 -26 -4 -11 -16 -20 -10
-96 64 -82 80 -191 173 -203 173 -4 0 -26 14 -50 30 -24 17 -55 30 -68 30 -14
0 -30 7 -37 15 -7 8 -17 15 -22 15 -14 0 -38 27 -31 34 4 3 -1 6 -9 6 -13 0
-28 19 -28 36 0 2 16 -3 37 -11 20 -8 38 -13 41 -11 9 9 -7 35 -29 46 -17 10
-20 9 -13 -2 4 -7 -3 -4 -16 7 -13 11 -20 15 -17 9 8 -13 -20 -40 -30 -30 -3
3 0 6 7 6 8 0 0 11 -18 23 -17 13 -28 28 -24 33 4 4 -1 2 -10 -5 -15 -11 -19
-11 -24 2 -3 9 -13 18 -22 22 -14 5 -14 4 1 -13 9 -10 17 -24 17 -30 0 -7 7
-12 15 -12 8 0 14 -3 14 -7 -3 -20 2 -26 11 -13 8 12 10 11 10 -7 0 -22 0 -22
-34 -5 -19 10 -31 22 -28 30 3 9 -3 11 -21 8 -20 -3 -28 0 -32 15 -4 10 -13
19 -21 19 -9 0 -14 10 -14 27 0 27 -10 27 -14 -1 -1 -9 -5 -16 -9 -16 -4 0 -7
3 -6 6 0 4 -5 11 -13 15 -10 7 -8 9 6 9 15 0 16 3 7 14 -8 10 -9 16 -1 21 5 3
10 1 10 -4 0 -6 7 -11 15 -11 8 0 15 -9 15 -20 0 -13 7 -20 19 -20 11 0 23 -9
26 -21 4 -11 9 -19 11 -16 3 2 0 16 -5 29 -9 23 -7 26 15 26 14 0 21 -5 17
-11 -3 -6 -1 -7 5 -3 20 12 13 23 -20 31 -18 4 -27 9 -21 12 22 8 207 -59 295
-108 24 -12 25 -12 23 13 -2 21 -39 43 -56 32 -5 -3 -9 2 -9 10 0 9 -3 16 -7
17 -28 3 -47 9 -70 24 -14 9 -23 13 -19 7 3 -6 -4 -9 -18 -8 -13 0 -22 4 -20
7 8 13 -24 17 -36 6 -7 -7 -10 -7 -7 -1 6 11 -90 48 -127 49 -12 0 -20 5 -19
10 1 6 -18 9 -48 8 -34 -2 -48 0 -47 9 2 7 -4 13 -12 13 -8 1 -28 7 -45 14
-22 9 -35 10 -47 2 -14 -9 -16 -8 -11 7 6 14 4 15 -9 4 -12 -10 -18 -10 -27 2
-7 8 -19 12 -27 9 -8 -3 -20 -1 -27 5 -15 11 -48 12 -41 0 3 -5 9 -6 14 -3 4
3 13 -2 20 -10 6 -7 17 -12 25 -9 7 3 16 1 20 -5 3 -7 -2 -11 -14 -11 -11 0
-22 4 -26 9 -3 5 -21 8 -40 5 -19 -2 -35 0 -35 6 0 5 8 6 18 3 15 -6 15 -5 3
10 -8 10 -16 15 -19 12 -3 -3 -11 0 -18 6 -23 19 -37 0 -20 -27 14 -20 14 -23
1 -18 -8 3 -17 14 -20 24 -4 13 -13 17 -29 14 -18 -3 -23 0 -22 14 0 9 6 20
11 24 6 4 -1 8 -14 8 -19 0 -21 -3 -12 -14 8 -10 9 -16 1 -21 -6 -3 -7 -12 -4
-18 4 -7 3 -8 -2 -4 -5 5 -10 13 -10 18 -1 5 -2 14 -3 19 0 6 -6 10 -12 10 -6
0 -9 -6 -6 -14 4 -10 0 -12 -15 -8 -16 4 -19 2 -14 -9 4 -8 0 -5 -9 6 -9 12
-11 21 -5 23 5 2 10 8 10 13 0 11 -41 -9 -52 -25 -5 -6 -8 -2 -8 10 0 34 -12
36 -43 7 l-29 -28 6 25 c3 14 3 19 0 13 -3 -7 -12 -13 -20 -13 -8 0 -14 -5
-14 -12 0 -6 -2 -9 -5 -6 -11 11 8 37 38 52 18 9 25 16 15 16 -9 0 -29 -13
-45 -28 -29 -28 -63 -32 -63 -6 0 8 7 14 16 14 9 0 12 -5 8 -12 -4 -7 -3 -8 5
-4 6 4 9 12 6 17 -4 5 4 13 17 18 17 7 19 10 6 10 -10 1 -18 6 -18 11 0 6 -7
10 -15 10 -8 0 -15 -4 -15 -10 0 -5 8 -10 18 -10 10 0 5 -6 -15 -16 -31 -16
-35 -27 -18 -54 8 -13 7 -13 -8 -1 -9 7 -17 20 -17 27 0 8 -13 17 -30 21 -17
3 -30 12 -30 20 0 8 -4 12 -9 9 -14 -9 -42 5 -34 17 4 6 1 7 -7 2 -9 -5 -11
-4 -6 3 4 7 16 12 26 12 10 0 21 3 23 8 5 6 -13 10 -66 12 -9 1 -15 5 -12 11
4 5 1 9 -4 9 -12 0 -15 -23 -4 -33 3 -4 12 -2 20 4 8 7 13 8 13 1 0 -5 -6 -15
-14 -21 -11 -9 -15 -9 -19 1 -4 10 -8 10 -17 -2 -9 -12 -11 -7 -7 25 3 22 3
34 0 28 -2 -7 -12 -13 -20 -13 -9 0 -13 -6 -9 -15 3 -8 1 -15 -4 -15 -6 0 -10
6 -10 13 0 8 -7 14 -15 14 -8 0 -12 -4 -9 -9 3 -4 -7 -13 -23 -19 -20 -8 -24
-13 -13 -17 8 -2 21 -10 29 -16 11 -9 13 -7 7 12 -5 13 -3 22 3 22 6 0 11 -6
11 -14 0 -8 4 -18 10 -21 6 -3 7 1 4 9 -4 10 -1 16 9 16 10 0 14 -8 13 -24 -2
-16 1 -23 9 -19 9 3 12 -4 11 -20 0 -16 -6 -23 -16 -22 -8 2 -19 4 -23 4 -5 1
-5 5 -2 11 4 6 -6 8 -24 6 -22 -2 -31 1 -31 11 0 11 4 11 20 3 26 -14 26 1 0
18 -17 11 -20 9 -26 -14 l-6 -25 -15 21 c-8 12 -12 24 -9 27 3 4 6 1 6 -6 0
-7 5 -9 10 -6 16 10 1 25 -25 25 -32 0 -40 -15 -17 -32 10 -7 22 -19 26 -26
13 -22 -26 3 -44 27 -22 31 -35 25 -14 -6 15 -24 15 -26 1 -14 -9 7 -18 11
-18 7 -1 -3 -2 -10 -3 -15 0 -5 -4 -12 -8 -16 -9 -9 -4 17 6 34 7 11 5 13 -9
7 -11 -4 -22 -2 -26 5 -4 7 -17 14 -29 16 -14 2 -19 -1 -14 -9 4 -7 3 -8 -4
-4 -20 12 -13 27 11 24 12 -2 21 2 20 8 -1 6 5 11 12 11 10 0 12 -4 5 -12 -8
-9 -6 -14 6 -19 22 -8 24 -8 18 7 -3 8 2 20 10 27 9 7 13 16 10 21 -3 5 0 9 5
9 16 0 13 -16 -6 -36 -17 -17 -16 -17 16 -11 18 4 42 7 53 7 15 0 18 4 13 18
-4 9 -7 25 -7 35 1 21 -14 23 -22 2 -3 -8 -11 -15 -18 -15 -10 0 -10 2 1 9 15
10 7 31 -12 31 -8 0 -8 -3 1 -9 11 -7 11 -9 -2 -14 -9 -4 -16 -1 -16 5 0 6 -3
8 -6 5 -4 -3 -14 -2 -23 3 -10 5 -23 5 -30 0 -10 -6 -9 -10 5 -18 10 -6 15
-14 11 -18 -4 -4 -14 2 -23 14 -12 18 -22 21 -67 17 -29 -2 -58 1 -64 7 -18
15 -16 2 3 -16 12 -13 12 -16 2 -16 -8 0 -20 6 -27 13 -11 10 -12 9 -6 -3 8
-13 7 -13 -9 0 -23 18 -96 21 -96 3 0 -7 -5 -13 -11 -13 -6 0 -9 6 -6 13 3 8
-7 13 -29 14 -19 2 -34 -1 -34 -7 0 -5 10 -9 23 -7 13 1 21 -3 20 -10 -2 -7 4
-13 12 -13 19 0 141 -61 210 -104 85 -54 113 -67 118 -56 3 6 4 5 3 -2 -2 -7
6 -23 17 -36 21 -23 33 -57 16 -46 -5 3 -7 9 -4 14 3 4 -1 13 -9 19 -8 7 -16
8 -18 4 -3 -4 -3 -2 -1 5 2 9 -6 12 -25 10 -21 -2 -27 1 -26 15 1 9 -5 17 -14
17 -8 0 -24 7 -34 17 -11 9 -18 11 -18 5 0 -7 5 -12 10 -12 6 0 10 -5 10 -12
0 -6 -12 0 -27 14 -16 15 -35 28 -43 30 -8 2 -23 13 -33 26 -10 12 -24 22 -30
22 -7 0 -25 12 -42 26 -16 14 -37 23 -47 21 -10 -3 -16 -2 -13 2 2 5 -7 13
-21 20 -34 15 -43 13 -20 -4 11 -8 17 -15 13 -15 -12 0 -77 44 -77 53 0 10 14
9 27 -4 7 -7 9 -3 6 14 -3 14 1 28 8 32 7 5 10 4 5 -3 -3 -6 -2 -13 4 -17 5
-3 10 1 10 10 0 14 3 14 28 -2 l27 -17 -18 21 c-19 22 -26 23 -87 12z m-383
-55 c-3 -3 -12 -4 -19 -1 -8 3 -5 6 6 6 11 1 17 -2 13 -5z m353 -4 c0 -5 -7
-10 -16 -10 -8 0 -12 5 -9 10 3 6 10 10 16 10 5 0 9 -4 9 -10z m200 -19 c0 -5
-9 -7 -20 -4 -11 3 -20 12 -20 20 0 11 4 11 20 3 11 -6 20 -15 20 -19z m188
-6 c0 -23 -2 -24 -13 -8 -11 15 -6 31 11 33 1 0 2 -11 2 -25z m142 1 c0 -2 -7
-7 -16 -10 -8 -3 -12 -2 -9 4 6 10 25 14 25 6z m-653 -12 c-3 -3 -12 -4 -19
-1 -8 3 -5 6 6 6 11 1 17 -2 13 -5z m414 -25 c5 -8 9 -9 9 -3 0 6 6 11 13 11
7 0 13 -8 13 -17 0 -10 -5 -17 -11 -16 -12 2 -75 35 -75 40 0 9 43 -3 51 -15z
m-227 2 c4 -5 -3 -7 -14 -4 -23 6 -26 13 -6 13 8 0 17 -4 20 -9z m644 -20 c11
-14 11 -14 6 2 -5 13 -2 16 9 11 24 -9 28 -42 6 -57 -10 -8 -16 -17 -12 -21 4
-4 0 -4 -10 0 -9 3 -17 15 -17 27 0 11 -7 28 -15 37 -14 15 -13 17 2 17 10 0
24 -7 31 -16z m68 -20 c-4 -5 0 -11 6 -14 8 -3 3 -9 -12 -15 -28 -11 -42 -6
-21 7 7 5 10 14 7 20 -4 6 0 11 9 11 9 0 14 -4 11 -9z m57 -25 c4 -10 1 -13
-9 -9 -7 3 -14 -1 -14 -8 0 -7 -2 -10 -5 -7 -7 7 5 38 15 38 4 0 10 -7 13 -14z
m199 -31 c5 -22 3 -24 -11 -13 -9 7 -18 13 -20 15 -5 3 10 23 18 23 5 0 11
-11 13 -25z m-1952 -9 c0 -2 -7 -7 -16 -10 -8 -3 -12 -2 -9 4 6 10 25 14 25 6z
m1251 -28 c10 -19 10 -19 -15 -3 -28 19 -35 38 -11 29 9 -4 20 -15 26 -26z
m-1304 -3 c-10 -7 -25 -22 -32 -32 -13 -17 -14 -17 -9 3 3 12 15 26 27 32 30
15 35 14 14 -3z m-47 -5 c0 -13 -11 -13 -30 0 -12 8 -11 10 8 10 12 0 22 -4
22 -10z m90 -4 c0 -2 -7 -7 -16 -10 -8 -3 -12 -2 -9 4 6 10 25 14 25 6z m1305
-16 c3 -6 -1 -7 -9 -4 -18 7 -21 14 -7 14 6 0 13 -4 16 -10z m-1408 -6 c-3 -3
-12 -4 -19 -1 -8 3 -5 6 6 6 11 1 17 -2 13 -5z m1463 -39 c19 -19 32 -35 29
-35 -3 0 -20 16 -39 35 -19 19 -32 35 -29 35 3 0 20 -16 39 -35z m948 10 c-3
-3 -9 2 -12 12 -6 14 -5 15 5 6 7 -7 10 -15 7 -18z m109 0 c12 -17 36 -23 103
-27 14 0 19 -3 11 -6 -10 -3 -8 -9 10 -23 20 -16 21 -19 6 -19 -15 0 -16 -3
-6 -22 11 -23 11 -23 -11 1 -16 16 -19 25 -11 30 9 6 8 11 -4 21 -13 11 -15 9
-15 -9 0 -18 -2 -20 -14 -9 -8 7 -12 16 -9 21 2 4 0 7 -6 7 -5 0 -13 -5 -16
-11 -5 -6 -11 -4 -19 7 -8 11 -18 14 -26 9 -9 -5 -11 -4 -6 4 6 8 0 10 -21 6
-25 -5 -26 -4 -5 4 24 11 31 27 7 18 -8 -4 -17 -2 -20 3 -9 15 -25 12 -19 -4
3 -8 1 -16 -4 -20 -6 -4 -9 24 -3 41 4 11 67 -8 78 -22z m-962 5 c-3 -5 -1
-10 4 -10 6 0 11 -5 11 -11 0 -6 10 -20 23 -31 14 -13 17 -18 6 -15 -9 3 -22
0 -28 -6 -9 -9 -11 -8 -6 5 4 9 0 27 -9 40 -19 26 -20 38 -5 38 5 0 7 -4 4
-10z m-1529 -42 c4 4 2 -1 -5 -10 -7 -10 -19 -18 -25 -18 -6 0 -4 5 4 10 12 8
10 10 -10 10 -19 0 -22 2 -10 10 9 5 19 5 26 0 6 -6 15 -6 20 -2z m2744 6 c0
-8 -19 -13 -24 -6 -3 5 1 9 9 9 8 0 15 -2 15 -3z m-2705 -14 c3 -5 2 -10 -4
-10 -5 0 -13 5 -16 10 -3 6 -2 10 4 10 5 0 13 -4 16 -10z m65 -10 c0 -12 -8
-12 -35 0 -18 8 -17 9 8 9 15 1 27 -3 27 -9z m-153 -6 c-3 -3 -12 -4 -19 -1
-8 3 -5 6 6 6 11 1 17 -2 13 -5z m73 -9 c11 -13 10 -14 -4 -9 -9 3 -16 10 -16
15 0 13 6 11 20 -6z m-63 -11 c-3 -3 -12 -4 -19 -1 -8 3 -5 6 6 6 11 1 17 -2
13 -5z m1474 -17 c-10 -9 -11 -8 -5 6 3 10 9 15 12 12 3 -3 0 -11 -7 -18z
m-1667 -2 c-4 -8 -14 -15 -23 -14 -12 0 -12 2 -2 6 11 5 11 7 0 14 -10 6 -8 9
8 9 16 0 21 -4 17 -15z m1882 -21 c1 -9 -1 -13 -4 -9 -4 4 -7 10 -7 13 0 4 -4
14 -9 22 -7 12 -6 13 4 3 8 -7 15 -20 16 -29z m-1801 16 c3 -5 1 -10 -4 -10
-6 0 -11 5 -11 10 0 6 2 10 4 10 3 0 8 -4 11 -10z m1745 -25 c-5 -6 -8 -15 -5
-18 3 -4 2 -5 -2 -2 -13 10 -10 43 4 38 9 -4 10 -9 3 -18z m-1650 -1 c0 -2 -7
-4 -15 -4 -8 0 -15 4 -15 10 0 5 7 7 15 4 8 -4 15 -8 15 -10z m1795 -5 c2 -3
-8 -5 -25 -5 -16 0 -27 3 -25 6 5 8 42 6 50 -1z m1312 -5 c-3 -3 -12 -4 -19
-1 -8 3 -5 6 6 6 11 1 17 -2 13 -5z m-2956 -21 c13 -16 12 -17 -3 -4 -17 13
-22 21 -14 21 2 0 10 -8 17 -17z m1559 -37 c0 -6 -7 -1 -15 10 -8 10 -15 23
-15 28 0 6 7 1 15 -10 8 -10 15 -23 15 -28z m-1435 -4 c-3 -3 -11 0 -18 7 -9
10 -8 11 6 5 10 -3 15 -9 12 -12z m1286 -5 c-10 -9 -11 -8 -5 6 3 10 9 15 12
12 3 -3 0 -11 -7 -18z m256 7 c-3 -3 -12 -4 -19 -1 -8 3 -5 6 6 6 11 1 17 -2
13 -5z m1028 -4 c-3 -5 -10 -10 -16 -10 -5 0 -9 5 -9 10 0 6 7 10 16 10 8 0
12 -4 9 -10z m-1015 -30 c6 -11 8 -20 6 -20 -3 0 -10 9 -16 20 -6 11 -8 20 -6
20 3 0 10 -9 16 -20z m1040 10 c0 -5 -2 -10 -4 -10 -3 0 -8 5 -11 10 -3 6 -1
10 4 10 6 0 11 -4 11 -10z m-985 -56 c6 -11 20 -31 33 -44 26 -28 52 -76 52
-97 0 -7 4 -13 9 -13 5 0 11 -7 15 -15 4 -12 2 -13 -13 -4 -20 13 -76 109 -64
110 4 0 -2 4 -14 9 -12 5 -25 22 -29 37 -4 15 -12 32 -18 36 -7 6 -6 7 4 4 8
-2 20 -12 25 -23z m-1575 -89 c7 -9 8 -15 2 -15 -5 0 -12 7 -16 15 -3 8 -4 15
-2 15 2 0 9 -7 16 -15z m-813 -21 c12 -3 19 -12 17 -19 -4 -10 -11 -10 -30 -1
-40 18 -31 32 13 20z m123 -64 c0 -5 -5 -10 -11 -10 -5 0 -7 5 -4 10 3 6 8 10
11 10 2 0 4 -4 4 -10z m37 -26 c-9 -9 -28 6 -21 18 4 6 10 6 17 -1 6 -6 8 -13
4 -17z m-99 -11 c17 -3 32 -8 32 -13 0 -4 19 -12 43 -19 52 -15 85 -30 117
-55 l25 -19 -37 6 c-20 3 -52 12 -70 21 -18 8 -47 17 -65 21 -17 3 -37 13 -44
21 -7 8 -31 24 -53 35 -35 17 -37 19 -11 14 17 -4 45 -9 63 -12z m253 -24 c44
-17 92 -42 107 -55 32 -28 16 -31 -31 -5 -18 10 -63 29 -100 41 -37 12 -75 29
-84 36 -33 25 22 16 108 -17z m-374 -5 c-3 -3 -12 -4 -19 -1 -8 3 -5 6 6 6 11
1 17 -2 13 -5z m409 -105 c3 -5 1 -9 -5 -9 -5 0 -13 5 -16 10 -3 6 -17 10 -31
10 -14 0 -23 4 -19 9 6 11 61 -5 71 -20z m-1421 -129 c-3 -5 -11 -10 -16 -10
-6 0 -7 5 -4 10 3 6 11 10 16 10 6 0 7 -4 4 -10z m809 -106 c6 -14 0 -16 -36
-11 -24 4 -61 11 -83 16 -36 8 -33 9 36 10 63 1 78 -2 83 -15z m111 -24 c14
-6 3 -9 -40 -9 -42 -1 -56 2 -45 9 18 12 58 12 85 0z m-815 -51 c35 -5 69 -14
75 -18 13 -9 152 -67 183 -76 27 -8 29 -25 2 -25 -26 0 -160 60 -160 71 0 5
-10 9 -23 9 -13 0 -27 3 -31 8 -4 4 -15 7 -24 8 -38 1 -113 17 -118 25 -7 12
16 11 96 -2z m503 -216 c43 -25 76 -47 74 -49 -7 -8 -139 59 -177 89 l-25 19
25 -7 c14 -4 60 -28 103 -52z m-873 -107 c0 -2 -7 -9 -15 -16 -12 -10 -15 -10
-15 4 0 9 7 16 15 16 8 0 15 -2 15 -4z m-50 -85 c0 -13 -29 -35 -37 -28 -7 8
15 37 28 37 5 0 9 -4 9 -9z m-80 -179 c0 -14 -39 -46 -47 -39 -3 4 2 16 12 27
19 21 35 26 35 12z m5700 -86 c0 -8 -8 -22 -17 -32 -17 -17 -18 -17 -21 0 -4
18 14 46 29 46 5 0 9 -6 9 -14z m-183 -93 c-50 -66 -68 -83 -86 -83 -14 1 -13
2 1 11 10 5 32 31 49 57 18 26 39 53 47 59 30 24 25 3 -11 -44z m-3002 7 c8
-13 -5 -13 -25 0 -13 8 -13 10 2 10 9 0 20 -4 23 -10z m-2665 -426 c0 -16 -23
-44 -36 -44 -10 0 -13 -7 -8 -25 7 -29 -3 -33 -22 -7 -18 23 -17 32 1 32 8 0
15 7 15 15 0 7 8 19 18 24 19 12 32 14 32 5z m5809 -224 c18 -17 37 -30 40
-30 4 0 24 -16 44 -35 21 -20 49 -40 62 -45 14 -5 25 -16 25 -24 0 -8 6 -21
14 -28 22 -22 30 -58 13 -58 -8 0 -17 6 -20 14 -3 7 -35 30 -71 52 -43 25 -66
45 -66 56 0 10 -11 24 -25 30 -14 6 -25 17 -25 23 0 7 -9 24 -20 38 -37 47
-21 51 29 7z m351 -411 c0 -17 -17 -35 -25 -28 -2 2 -7 22 -11 44 l-7 40 22
-19 c11 -11 21 -27 21 -37z m-6220 -138 c0 -5 -7 -11 -15 -15 -15 -5 -20 5 -8
17 9 10 23 9 23 -2z m675 -261 c-3 -5 -11 -10 -16 -10 -6 0 -7 5 -4 10 3 6 11
10 16 10 6 0 7 -4 4 -10z m5532 -177 c-3 -10 -5 -4 -5 12 0 17 2 24 5 18 2 -7
2 -21 0 -30z m-6096 -466 c-10 -9 -11 -8 -5 6 3 10 9 15 12 12 3 -3 0 -11 -7
-18z m5869 -916 c0 -11 -4 -22 -9 -25 -11 -7 -23 22 -15 35 9 16 24 10 24 -10z
m-5623 -73 c-3 -7 -5 -2 -5 12 0 14 2 19 5 13 2 -7 2 -19 0 -25z m5630 -25
c-3 -10 -5 -4 -5 12 0 17 2 24 5 18 2 -7 2 -21 0 -30z m10 -90 c-3 -10 -5 -4
-5 12 0 17 2 24 5 18 2 -7 2 -21 0 -30z m-119 -248 c16 -34 15 -45 -3 -45 -8
0 -15 6 -15 13 0 6 -3 22 -6 35 -9 30 10 28 24 -3z m-5490 -80 c3 -39 1 -55
-8 -55 -7 0 -10 11 -8 29 1 16 -3 36 -11 44 -7 10 -10 25 -6 38 11 34 28 6 33
-56z"/>
<path d="M7860 12500 c-9 -6 -10 -10 -3 -10 6 0 15 5 18 10 8 12 4 12 -15 0z"/>
<path d="M7710 12595 c0 -9 5 -15 11 -13 6 2 11 8 11 13 0 5 -5 11 -11 13 -6
2 -11 -4 -11 -13z"/>
<path d="M7980 12576 c0 -2 7 -7 16 -10 8 -3 12 -2 9 4 -6 10 -25 14 -25 6z"/>
<path d="M7964 12562 c4 -7 2 -12 -3 -12 -6 0 -11 -4 -11 -10 0 -15 17 -12 23
5 4 8 1 17 -5 21 -7 4 -8 3 -4 -4z"/>
<path d="M7915 12550 c-3 -6 1 -7 9 -4 18 7 21 14 7 14 -6 0 -13 -4 -16 -10z"/>
<path d="M8000 12539 c0 -5 5 -7 10 -4 6 3 10 8 10 11 0 2 -4 4 -10 4 -5 0
-10 -5 -10 -11z"/>
<path d="M8374 12472 c3 -6 -2 -13 -11 -15 -16 -4 -16 -5 -1 -6 21 -1 32 15
17 25 -7 4 -9 3 -5 -4z"/>
<path d="M5900 12370 c-8 -5 -10 -10 -5 -10 6 0 17 5 25 10 8 5 11 10 5 10 -5
0 -17 -5 -25 -10z"/>
<path d="M9126 12135 c4 -8 17 -18 30 -21 13 -3 24 -10 24 -14 0 -5 10 -12 23
-15 12 -4 49 -24 82 -43 63 -38 109 -54 83 -29 -7 7 -33 23 -58 36 -25 13 -47
26 -50 30 -6 7 -126 71 -134 71 -3 0 -3 -7 0 -15z"/>
<path d="M9470 12031 c0 -6 3 -11 8 -11 4 0 27 -18 52 -41 25 -22 53 -45 64
-50 18 -11 18 -10 0 15 -11 14 -26 28 -35 31 -8 3 -24 13 -35 23 -41 37 -54
45 -54 33z"/>
<path d="M9550 11863 c0 -14 46 -73 57 -73 6 0 14 -6 16 -12 3 -8 6 -6 6 4 1
10 -13 33 -30 53 -29 33 -49 44 -49 28z"/>
<path d="M9660 11835 c0 -5 5 -17 10 -25 5 -8 10 -10 10 -5 0 6 -5 17 -10 25
-5 8 -10 11 -10 5z"/>
<path d="M9720 11740 c0 -5 5 -10 11 -10 5 0 7 5 4 10 -3 6 -8 10 -11 10 -2 0
-4 -4 -4 -10z"/>
<path d="M9916 11215 c4 -8 8 -15 10 -15 2 0 4 7 4 15 0 8 -4 15 -10 15 -5 0
-7 -7 -4 -15z"/>
<path d="M9920 11180 c0 -8 -2 -51 -4 -95 -3 -44 -1 -96 4 -115 4 -19 8 -29 9
-22 1 7 5 11 10 7 5 -3 12 -2 14 2 9 15 -11 215 -22 226 -8 8 -11 7 -11 -3z"/>
<path d="M9973 10925 c0 -22 2 -30 4 -17 2 12 2 30 0 40 -3 9 -5 -1 -4 -23z"/>
<path d="M9951 10784 c0 -11 3 -14 6 -6 3 7 2 16 -1 19 -3 4 -6 -2 -5 -13z"/>
<path d="M6675 10610 c-3 -5 1 -10 9 -10 9 0 16 5 16 10 0 6 -4 10 -9 10 -6 0
-13 -4 -16 -10z"/>
<path d="M10126 8803 c-6 -14 -5 -15 5 -6 7 7 10 15 7 18 -3 3 -9 -2 -12 -12z"/>
<path d="M8747 8784 c-4 -4 -42 -6 -84 -5 -93 2 -305 -17 -339 -29 -13 -5
-108 -10 -211 -11 -103 -1 -217 -8 -252 -15 -35 -7 -70 -10 -77 -7 -8 3 -17
-2 -20 -11 -8 -21 -104 -68 -104 -51 0 6 11 22 25 35 18 17 22 27 15 34 -8 8
-19 0 -38 -24 -15 -19 -27 -39 -27 -45 0 -5 -9 -28 -19 -50 -33 -72 -44 -99
-56 -140 -6 -22 -16 -53 -20 -68 -5 -16 -7 -34 -5 -40 2 -7 6 -24 9 -39 4 -17
11 -25 19 -22 19 7 92 -21 92 -36 0 -7 -19 -23 -42 -35 -23 -11 -53 -31 -66
-43 -13 -12 -28 -22 -34 -22 -5 0 -18 -9 -28 -20 -10 -11 -24 -20 -32 -20 -7
0 -23 -15 -34 -34 -11 -19 -26 -37 -34 -40 -8 -3 -15 -14 -15 -24 0 -10 -8
-34 -17 -53 -22 -42 -26 -219 -5 -226 8 -3 12 7 12 31 0 49 19 89 36 75 7 -6
11 -16 8 -23 -2 -6 2 -20 9 -30 13 -18 14 -18 21 9 7 27 7 27 27 9 20 -18 21
-18 36 1 8 11 30 52 49 90 35 74 93 151 94 125 0 -9 -9 -23 -20 -33 -23 -19
-27 -47 -6 -47 14 0 36 18 142 121 40 38 77 69 82 69 6 0 12 5 14 11 2 6 13 9
23 6 18 -4 18 -5 -4 -12 -19 -7 -22 -13 -18 -40 6 -34 -14 -55 -62 -65 -14 -3
-25 -13 -27 -25 -3 -17 -16 -32 -50 -53 -22 -15 -134 -159 -134 -174 0 -26 26
-30 200 -34 l165 -4 -43 20 c-23 12 -61 23 -85 26 -52 7 -55 10 -58 55 -3 28
3 43 21 63 14 14 30 26 36 26 7 0 19 10 27 23 8 12 38 35 66 50 l51 28 0 -58
c0 -101 71 -210 157 -240 56 -19 137 -16 181 6 64 33 123 128 138 219 5 30 11
42 23 42 21 0 101 -76 101 -95 0 -8 9 -24 19 -34 17 -17 18 -24 8 -50 -14 -37
-5 -48 28 -33 14 6 25 8 25 4 0 -9 -75 -52 -90 -52 -6 0 -30 -9 -53 -21 -32
-16 -67 -21 -146 -25 -58 -2 -109 -8 -115 -14 -7 -7 -6 -10 1 -10 8 0 10 -12
6 -34 -3 -20 -1 -36 6 -41 28 -17 300 3 325 24 10 8 26 11 42 7 17 -5 35 -1
51 10 15 9 37 14 55 12 24 -4 32 -1 36 14 3 12 10 17 19 14 8 -3 26 6 41 20
22 22 38 27 87 30 79 3 75 2 75 15 0 6 -9 8 -20 4 -11 -4 -20 -2 -20 4 0 6 -7
11 -15 11 -18 0 -105 82 -105 98 0 7 14 12 31 12 16 0 28 4 25 8 -3 5 11 14
30 21 34 12 42 35 13 37 -35 2 -39 5 -39 24 0 15 7 20 25 20 l25 0 -22 25
c-12 14 -28 25 -35 25 -8 0 -27 16 -44 35 -17 19 -37 35 -44 35 -6 0 -31 14
-54 31 -41 29 -137 77 -196 97 -83 28 -258 60 -363 67 -82 5 -122 17 -122 35
0 21 41 50 70 50 17 0 41 6 53 14 12 7 76 19 142 25 91 9 127 16 147 31 15 11
33 20 41 20 7 0 17 4 23 9 16 16 59 18 56 3 -1 -8 2 -11 7 -8 5 4 38 9 72 12
35 2 68 9 74 14 21 17 175 -2 175 -21 0 -18 28 -8 33 11 3 11 9 20 14 20 15 0
53 -40 53 -55 0 -20 67 -68 85 -61 8 3 15 12 15 21 0 8 7 15 15 15 8 0 15 5
15 10 0 14 -36 85 -67 132 -25 38 -150 146 -206 178 -36 20 -109 35 -120 24z
m-1107 -273 c-6 -12 -15 -21 -20 -21 -16 0 -11 32 8 53 14 16 17 17 20 4 2 -9
-2 -25 -8 -36z m665 -275 c44 -10 60 -17 59 -29 -1 -13 3 -14 22 -5 16 8 32 8
54 -1 16 -6 44 -16 60 -22 39 -15 44 -59 6 -59 -14 0 -28 5 -32 11 -3 6 -24 9
-48 7 -31 -3 -49 2 -74 18 -28 20 -44 22 -110 20 -42 -2 -96 -7 -119 -11 -42
-7 -43 -7 -43 19 0 14 -4 26 -10 26 -5 0 -10 4 -10 10 0 16 71 24 81 9 7 -11
9 -10 9 4 0 14 9 17 48 16 26 0 74 -6 107 -13z m-249 -42 c19 -39 11 -54 -30
-54 -15 0 -16 3 -6 15 7 8 10 25 6 38 -5 21 0 37 10 37 2 0 11 -16 20 -36z
m-51 6 c-3 -5 -14 -10 -23 -9 -14 0 -13 2 3 9 27 11 27 11 20 0z m-62 -20 c-3
-11 -13 -20 -22 -20 -29 0 -32 12 -8 26 32 17 36 17 30 -6z m27 -54 c-30 -29
-100 -40 -100 -15 0 6 8 8 18 5 9 -3 24 -1 32 4 8 5 11 10 5 10 -20 1 15 16
42 18 l28 2 -25 -24z m644 -7 c14 -11 26 -27 26 -34 0 -8 6 -12 13 -9 16 6 57
-31 57 -52 0 -10 -5 -12 -12 -7 -7 4 -22 6 -34 5 -11 -2 -27 4 -34 12 -7 9
-19 16 -27 16 -7 0 -16 7 -19 15 -4 8 -12 15 -19 15 -19 0 -27 17 -20 40 8 26
35 25 69 -1z m-404 -119 c0 -13 -7 -20 -20 -20 -13 0 -20 7 -20 20 0 13 7 20
20 20 13 0 20 -7 20 -20z m-116 -6 c9 -23 8 -24 -14 -24 -19 0 -27 20 -13 33
11 11 20 8 27 -9z m602 -160 c-3 -9 -6 -18 -6 -20 0 -2 -10 -4 -22 -4 -20 0
-21 1 -3 20 22 24 40 26 31 4z m-986 -9 c10 -12 10 -19 1 -28 -14 -14 -44 2
-49 27 -4 21 31 22 48 1z m595 -183 c0 -18 -20 -15 -23 4 -3 10 1 15 10 12 7
-3 13 -10 13 -16z"/>
<path d="M5247 8682 c-26 -15 -77 -51 -113 -81 -66 -55 -107 -121 -149 -240
l-15 -43 26 6 c22 6 25 4 20 -10 -5 -14 -1 -16 29 -11 19 3 37 1 40 -4 4 -5
14 -5 27 2 15 8 17 13 8 19 -24 15 32 40 76 35 21 -3 56 1 78 9 36 12 37 14
17 21 -18 5 -20 9 -10 21 9 11 23 13 54 8 35 -5 46 -2 61 15 19 19 32 21 64 8
8 -4 53 -9 100 -11 127 -8 158 -11 390 -45 36 -5 72 -12 81 -15 20 -9 145 -25
229 -31 36 -2 81 -7 100 -9 44 -7 110 33 110 65 0 18 4 20 25 15 24 -6 25 -4
25 38 0 30 -5 46 -15 50 -8 3 -15 16 -15 30 0 14 -5 28 -11 32 -6 3 -9 15 -6
25 3 10 -3 30 -14 43 -10 13 -19 35 -20 48 l-1 23 -7 -25 c-5 -17 -16 -26 -41
-32 -43 -9 -101 0 -99 16 3 27 -2 36 -22 36 -12 0 -18 -4 -13 -11 9 -14 -17
-31 -31 -19 -6 5 -80 11 -165 14 -85 2 -186 7 -225 11 -79 7 -250 17 -280 17
-29 0 -77 -12 -104 -25 -20 -10 -26 -9 -34 4 -8 13 -17 15 -45 7 -29 -8 -37
-7 -44 6 -12 21 -24 20 -81 -12z"/>
<path d="M6525 8510 c3 -5 8 -10 11 -10 2 0 4 5 4 10 0 6 -5 10 -11 10 -5 0
-7 -4 -4 -10z"/>
<path d="M8778 8389 c-22 -14 20 -22 55 -12 l32 10 -38 4 c-20 3 -43 2 -49 -2z"/>
<path d="M9030 8355 c0 -8 12 -17 28 -21 15 -3 35 -8 45 -11 31 -8 18 13 -18
30 -44 21 -55 21 -55 2z"/>
<path d="M6170 8270 c-7 -5 -50 -11 -94 -15 -45 -3 -106 -8 -136 -11 -155 -12
-357 -72 -462 -137 -55 -33 -140 -124 -169 -179 -23 -45 -24 -52 -4 -44 11 4
14 -2 11 -25 -2 -17 2 -33 9 -37 26 -14 17 -72 -11 -72 -8 0 -14 -9 -14 -19 0
-11 -6 -21 -12 -24 -22 -8 2 -21 40 -23 23 0 42 5 49 15 7 9 13 11 13 5 0 -6
-7 -17 -15 -24 -21 -18 -19 -29 9 -40 14 -5 29 -18 35 -28 16 -31 65 -46 102
-33 18 6 44 11 59 11 31 0 80 34 80 56 0 8 -9 14 -20 14 -13 0 -18 5 -14 15 4
8 2 15 -4 15 -11 0 -92 76 -92 86 0 3 17 31 37 62 38 56 92 114 126 133 15 8
17 5 17 -28 1 -81 49 -166 127 -224 42 -32 56 -36 110 -38 142 -4 233 89 241
247 4 69 5 72 26 66 45 -14 88 -43 117 -80 17 -22 35 -39 39 -39 5 0 14 -5 19
-10 16 -16 -16 -90 -45 -106 -13 -7 -24 -16 -24 -21 0 -4 -14 -8 -31 -8 -28 0
-29 -1 -14 -16 17 -17 23 -17 203 2 40 4 66 12 69 21 10 25 -21 76 -79 133
-66 65 -216 170 -242 170 -9 0 -19 6 -22 14 -3 8 -11 13 -17 10 -17 -6 -41 12
-33 25 9 14 46 14 46 0 0 -8 14 -10 44 -6 41 6 44 5 39 -16 -3 -15 -2 -18 5
-9 14 20 52 6 102 -40 59 -53 100 -78 128 -78 27 0 29 16 2 30 -11 6 -20 17
-20 26 0 12 4 12 28 -3 47 -29 72 -56 94 -100 42 -84 69 -36 38 67 -11 35 -17
66 -15 68 7 7 -24 62 -35 62 -5 0 -7 7 -4 15 4 8 1 15 -5 15 -6 0 -40 20 -77
45 -64 44 -94 55 -94 35 0 -5 5 -10 12 -10 6 0 9 -2 7 -5 -7 -6 -99 29 -107
41 -6 9 -99 41 -141 49 -10 2 -24 0 -31 -5z m-122 -86 c23 -3 42 -10 42 -15 0
-5 8 -9 18 -9 31 0 55 -24 48 -47 -8 -26 -56 -40 -71 -21 -5 7 -20 12 -32 10
-13 -2 -23 1 -23 6 0 12 -161 5 -215 -10 -43 -11 -154 -64 -220 -103 -22 -13
-48 -24 -57 -25 -9 0 -21 -6 -25 -13 -15 -26 -87 -83 -80 -64 10 25 -22 19
-37 -8 -21 -37 -33 -46 -40 -30 -3 8 -2 15 3 15 4 0 14 11 21 25 8 14 23 28
34 31 30 9 93 84 78 93 -13 8 4 26 68 73 56 40 90 54 175 73 44 9 94 21 110
25 30 9 121 6 203 -6z m-153 -224 c8 -13 -13 -40 -31 -40 -14 0 -19 31 -7 43
10 10 31 8 38 -3z m113 -7 c5 -18 -28 -29 -38 -12 -5 7 -6 17 -3 22 7 12 35 5
41 -10z m450 -145 c7 -7 12 -20 12 -30 0 -14 -8 -18 -35 -18 -39 0 -42 6 -19
38 17 25 25 27 42 10z"/>
<path d="M7585 7930 c-3 -5 1 -10 9 -10 9 0 16 5 16 10 0 6 -4 10 -9 10 -6 0
-13 -4 -16 -10z"/>
<path d="M8936 7814 c-17 -12 -17 -14 -4 -14 9 0 20 5 23 11 11 17 2 18 -19 3z"/>
<path d="M10047 7651 c-4 -24 -5 -46 -2 -49 11 -11 16 8 13 49 l-3 44 -8 -44z"/>
<path d="M8170 7652 c0 -5 7 -17 15 -28 14 -18 14 -18 15 9 0 17 -5 27 -15 27
-8 0 -15 -4 -15 -8z"/>
<path d="M5725 7636 c-48 -14 -77 -55 -56 -80 17 -20 53 -22 45 -2 -3 7 2 16
10 19 14 6 51 66 44 72 -2 1 -21 -3 -43 -9z"/>
<path d="M3991 7617 c-5 -14 -4 -25 2 -29 6 -4 12 -37 12 -75 2 -69 22 -176
69 -358 14 -55 26 -108 26 -117 0 -10 4 -18 9 -18 4 0 11 53 14 118 10 183 19
266 29 279 20 25 -2 82 -57 147 -61 71 -92 87 -104 53z"/>
<path d="M5801 7604 c-25 -31 -27 -44 -7 -44 19 0 83 41 90 58 6 15 -20 16
-29 2 -5 -8 -11 -8 -20 0 -10 8 -18 4 -34 -16z"/>
<path d="M5990 7590 c0 -5 5 -10 10 -10 6 0 10 5 10 10 0 6 -4 10 -10 10 -5 0
-10 -4 -10 -10z"/>
<path d="M5893 7583 c-18 -7 -16 -33 2 -33 8 0 15 9 15 20 0 11 -1 20 -2 19
-2 0 -9 -3 -15 -6z"/>
<path d="M10031 7550 c-3 -48 -12 -82 -24 -81 -26 3 -29 0 -17 -14 7 -8 17
-12 23 -8 6 4 8 0 4 -10 -3 -10 -2 -17 3 -17 10 0 24 116 17 151 -3 15 -5 7
-6 -21z"/>
<path d="M10022 7360 c0 -14 2 -19 5 -12 2 6 2 18 0 25 -3 6 -5 1 -5 -13z"/>
<path d="M10001 7244 c0 -11 3 -14 6 -6 3 7 2 16 -1 19 -3 4 -6 -2 -5 -13z"/>
<path d="M7614 6705 c-3 -8 3 -29 15 -47 12 -18 40 -71 63 -118 53 -108 62
-194 29 -280 -22 -58 -71 -100 -95 -82 -6 5 -23 12 -37 16 -16 3 -35 20 -48
41 -12 21 -36 42 -56 51 -19 8 -35 19 -35 25 0 5 -4 8 -9 4 -6 -3 -15 3 -20
14 -9 16 -20 19 -63 17 -29 -2 -67 1 -84 6 -23 6 -40 3 -69 -12 -22 -11 -50
-20 -63 -20 -25 0 -126 -95 -117 -110 3 -4 -2 -13 -10 -20 -19 -16 -19 -30 0
-30 9 0 15 -9 15 -25 0 -20 -5 -25 -27 -25 -21 0 -47 21 -117 93 -132 136
-155 147 -224 103 -72 -46 -93 -83 -82 -141 6 -26 -2 -35 -30 -35 -16 0 -30
-4 -30 -9 0 -6 26 -35 58 -67 52 -52 60 -57 97 -55 46 3 69 21 96 73 25 48
109 91 109 55 0 -16 63 -52 107 -62 23 -4 34 -14 42 -36 5 -16 13 -29 16 -29
11 0 70 32 100 55 17 12 51 26 75 29 25 4 57 9 71 12 23 4 28 1 34 -23 9 -39
35 -59 83 -68 23 -4 45 -11 48 -16 14 -23 114 21 164 71 86 88 122 154 140
258 11 65 5 168 -11 178 -5 3 -9 13 -9 22 0 10 -9 35 -20 57 -11 22 -20 46
-20 54 0 22 -51 91 -67 91 -7 0 -16 -7 -19 -15z"/>
<path d="M6950 5408 c0 -25 -19 -32 -39 -14 -10 9 -23 16 -29 16 -18 0 -14
-31 5 -45 9 -7 13 -17 9 -23 -10 -17 -234 -11 -241 6 -2 6 1 12 7 12 6 0 9 2
7 4 -11 11 -122 -18 -184 -49 -54 -27 -90 -38 -159 -45 -48 -6 -96 -15 -105
-19 -17 -10 -19 -38 -6 -79 7 -21 12 -23 46 -17 22 4 39 3 39 -3 0 -12 69 -43
95 -43 11 0 38 3 60 6 120 16 147 17 140 4 -9 -13 8 -5 35 16 15 13 90 25 90
15 0 -6 60 -11 147 -11 46 0 63 -4 67 -16 6 -14 9 -13 31 1 31 21 41 20 74 -3
26 -19 81 -19 81 0 0 5 20 6 45 2 30 -4 50 -1 61 7 8 8 41 15 72 16 47 2 65
-3 99 -25 24 -14 43 -30 43 -35 0 -6 6 -2 13 9 13 17 15 17 38 -6 26 -26 36
-27 98 -10 24 7 53 10 63 7 11 -2 52 6 91 18 40 13 98 31 130 40 32 10 62 26
67 36 33 61 -13 93 -134 92 -52 0 -86 4 -96 13 -8 7 -53 29 -100 49 -84 35
-140 46 -140 26 0 -5 -5 -10 -11 -10 -5 0 -8 4 -5 8 3 5 -6 15 -19 22 -21 11
-31 10 -78 -14 -60 -29 -107 -34 -107 -12 0 21 -13 27 -76 31 -51 4 -59 2 -80
-21 -13 -14 -24 -29 -24 -35 0 -12 -27 -12 -35 1 -3 6 -14 10 -25 10 -10 0
-20 9 -23 23 -4 12 -13 31 -21 42 -13 17 -15 18 -16 3z m-10 -53 c0 -8 -7 -15
-15 -15 -26 0 -18 20 13 29 1 1 2 -6 2 -14z"/>
<path d="M8600 4070 c0 -5 5 -10 10 -10 6 0 10 5 10 10 0 6 -4 10 -10 10 -5 0
-10 -4 -10 -10z"/>
<path d="M8474 3976 c-3 -8 -12 -12 -20 -9 -8 3 -33 -2 -54 -12 -21 -10 -50
-15 -64 -13 -18 4 -26 1 -26 -8 0 -8 -6 -14 -13 -14 -21 0 -28 12 -16 27 9 10
8 13 -5 13 -9 0 -16 -5 -16 -11 0 -15 -22 -35 -47 -43 -12 -4 -27 -13 -33 -22
-10 -10 -16 -11 -26 -3 -15 12 -59 -14 -106 -63 -14 -15 -33 -28 -41 -28 -8 0
-30 -12 -49 -27 -34 -27 -82 -54 -143 -79 -16 -6 -55 -23 -85 -37 -30 -14 -64
-27 -75 -29 -11 -2 -19 -10 -17 -16 1 -8 -6 -10 -22 -6 -13 3 -27 1 -31 -6 -4
-6 -15 -8 -25 -5 -10 3 -25 -1 -33 -9 -8 -8 -17 -12 -20 -9 -4 3 -14 2 -24 -2
-10 -5 -26 -7 -36 -6 -10 2 -26 -4 -36 -13 -14 -13 -23 -14 -49 -4 -24 10 -45
9 -92 0 -46 -10 -65 -10 -75 -2 -8 7 -18 9 -22 7 -5 -3 -42 -1 -83 5 -41 5
-88 11 -105 13 -16 2 -47 7 -69 11 -36 7 -38 6 -31 -15 6 -18 3 -21 -26 -21
-18 0 -29 -3 -26 -7 4 -3 0 -14 -9 -24 -20 -22 -57 -9 -48 16 4 10 0 15 -11
15 -9 0 -19 -9 -22 -19 -9 -33 -103 -36 -103 -3 0 12 -3 13 -12 4 -29 -29
-138 -1 -138 36 0 14 -2 15 -10 2 -11 -18 -41 -9 -188 61 -56 27 -106 49 -111
49 -4 0 -16 9 -26 20 -18 20 -53 39 -100 54 -18 6 -17 5 4 -18 13 -14 38 -32
55 -41 17 -8 56 -33 86 -55 30 -22 80 -51 110 -65 30 -14 62 -30 70 -35 55
-37 212 -93 345 -124 145 -34 152 -35 280 -41 61 -4 111 -10 113 -14 1 -5 22
-5 45 0 23 4 68 8 99 9 31 0 60 5 63 11 4 6 32 9 63 8 39 -2 69 3 94 15 20 10
41 15 46 12 12 -7 74 13 83 27 4 5 14 7 23 4 9 -4 26 -1 38 6 16 9 22 9 25 0
3 -9 10 -9 24 -3 10 6 28 15 39 20 11 6 31 10 45 10 14 0 45 9 67 20 23 11 44
18 46 15 2 -2 17 2 33 11 16 8 31 14 34 14 13 -1 63 32 99 65 21 19 41 35 45
35 3 0 24 16 46 35 22 19 47 35 56 35 9 0 19 7 23 15 3 8 11 15 17 15 13 0 28
16 127 128 49 55 99 132 87 132 -3 0 -8 -6 -11 -14z"/>
<path d="M5961 3786 c2 -2 15 -9 29 -15 24 -11 24 -11 6 3 -16 13 -49 24 -35
12z"/>
<path d="M4915 3208 c-97 -100 -197 -240 -242 -340 -75 -167 -118 -243 -136
-240 -19 3 -66 -33 -207 -158 -131 -117 -203 -168 -303 -218 -104 -51 -330
-179 -395 -224 -58 -40 -162 -91 -252 -123 -108 -38 -216 -98 -373 -208 -76
-52 -154 -101 -175 -107 -20 -7 -89 -38 -152 -70 l-115 -57 -101 -1 c-88 -1
-107 -5 -144 -26 -24 -14 -47 -23 -51 -20 -10 6 -121 -55 -156 -86 -15 -14
-37 -32 -49 -40 -12 -8 -48 -38 -80 -67 -98 -87 -527 -325 -929 -516 -346
-164 -366 -175 -470 -249 -49 -35 -115 -74 -145 -87 -121 -52 -160 -73 -274
-146 -65 -42 -129 -80 -142 -85 -22 -9 -24 -15 -24 -75 l0 -65 7080 0 7080 0
0 55 c0 30 -3 54 -7 53 -5 -1 -35 25 -68 58 -33 32 -117 100 -187 151 -69 51
-150 114 -180 142 -83 77 -145 123 -251 184 -54 31 -100 57 -103 57 -2 0 -22
11 -44 25 -22 14 -40 22 -40 18 0 -5 -4 -3 -8 3 -8 13 -259 174 -270 174 -4 0
-24 9 -45 20 -21 11 -43 17 -49 14 -7 -5 -8 -2 -3 6 6 10 4 12 -8 7 -10 -4
-20 0 -25 10 -6 10 -16 14 -26 10 -9 -4 -15 -2 -13 5 1 7 -7 14 -18 16 -11 2
-29 12 -40 21 -62 51 -173 111 -207 111 -10 0 -18 5 -18 11 0 6 -9 9 -20 6
-12 -3 -23 1 -29 10 -4 8 -21 16 -37 17 -16 1 -35 5 -41 9 -7 5 -18 5 -23 2
-6 -4 -22 0 -35 9 -13 9 -31 13 -39 10 -9 -3 -16 -2 -16 3 0 5 -21 10 -47 11
-68 2 -123 12 -123 22 0 4 -9 6 -20 3 -11 -3 -20 0 -20 6 0 6 -9 11 -20 11
-11 0 -20 5 -20 10 0 6 -6 10 -14 10 -7 0 -19 7 -26 15 -7 8 -16 12 -21 9 -5
-3 -9 -1 -9 5 0 18 -31 41 -55 41 -13 0 -28 6 -32 14 -14 23 -49 1 -99 -64
-26 -33 -49 -60 -52 -60 -2 0 -32 28 -67 63 -82 82 -168 147 -196 147 -6 0 -7
4 -4 10 3 6 -1 7 -9 4 -9 -3 -16 -2 -16 3 0 5 -25 22 -55 38 -30 17 -55 33
-55 36 0 3 -33 20 -72 39 -40 18 -116 54 -168 80 -52 26 -135 64 -185 85 -49
20 -103 43 -120 50 -16 8 -61 26 -100 40 -38 15 -85 33 -103 41 -18 8 -37 12
-44 8 -6 -4 -8 -3 -5 3 4 6 -8 17 -26 24 -31 13 -145 82 -265 161 -32 21 -64
41 -72 45 -7 3 -43 25 -80 46 -36 22 -90 51 -120 64 -73 31 -100 46 -195 108
-44 29 -100 65 -125 81 -25 16 -89 64 -141 107 -87 71 -100 86 -139 163 -23
46 -72 127 -109 179 -36 52 -88 133 -116 181 -27 47 -57 92 -66 100 -16 15
-15 20 -50 -336 -18 -185 -39 -254 -111 -363 -21 -32 -38 -60 -38 -62 0 -7
-93 -138 -134 -190 -201 -253 -629 -562 -1133 -818 -244 -124 -597 -264 -773
-307 -73 -18 -204 -64 -212 -75 -4 -6 -12 -3 -20 7 -7 10 -60 39 -118 66 -330
154 -373 178 -595 326 -355 236 -522 385 -721 642 -115 150 -139 186 -187 280
-83 165 -99 295 -57 474 32 140 38 171 60 318 23 157 24 182 8 182 -7 0 -54
-42 -103 -92z m1685 -2500 c0 -11 14 -43 30 -70 17 -26 30 -52 30 -58 0 -5 10
-16 22 -24 15 -11 17 -16 8 -16 -8 0 -34 17 -56 38 -39 35 -61 78 -58 112 1 8
2 23 3 33 1 25 21 11 21 -15z"/>
</g>
</svg>
